<svg width="268" height="104" viewBox="0 0 268 104" fill="none" xmlns="http://www.w3.org/2000/svg">
<path d="M38.688 101V26.12H0.816V0.775994H81.744V26.12H43.872V101H38.688ZM154.93 0.775994C161.266 0.775994 166.306 1.73599 170.05 3.65599C174.562 5.96 178.018 9.128 180.418 13.16C182.914 17.192 184.162 21.704 184.162 26.696C184.162 31.4 182.914 35.768 180.418 39.8C177.922 43.736 174.514 46.856 170.194 49.16C175.378 50.984 179.746 54.152 183.298 58.664C186.85 63.176 188.626 68.264 188.626 73.928C188.626 78.92 187.33 83.528 184.738 87.752C182.242 91.88 178.882 95.144 174.658 97.544C172.546 98.696 170.194 99.56 167.602 100.136C165.01 100.712 161.554 101 157.234 101H112.882V0.775994H154.93Z" fill="#FFFFFFd9"/>
<path d="M241.364 90.056C241.364 86.504 242.612 83.48 245.108 80.984C247.7 78.392 250.82 77.096 254.468 77.096C258.116 77.096 261.188 78.392 263.684 80.984C266.276 83.48 267.572 86.504 267.572 90.056C267.572 93.608 266.276 96.68 263.684 99.272C261.188 101.864 258.116 103.16 254.468 103.16C250.916 103.16 247.844 101.864 245.252 99.272C242.66 96.68 241.364 93.608 241.364 90.056Z" fill="#9097fd"/>
</svg>
